<svg width="1500" height="1500" viewBox="0 0 1500 1500" fill="none" xmlns="http://www.w3.org/2000/svg">
<path d="M640.5 331.142L511.5 455.142L488 436.643C489.5 432.143 493.3 421.343 496.5 414.143C501.7 397.743 513.667 386.643 519 383.143C547.5 362.476 606.9 319.742 616.5 314.142C622.5 308.542 627 309.809 628.5 311.142C630.333 312.976 635.3 317.542 640.5 321.142C642.9 325.142 641.5 329.476 640.5 331.142Z" fill="white"/>
<path d="M303.325 629L432.325 505L455.825 523.5C454.325 528 450.525 538.8 447.325 546C442.125 562.4 430.159 573.5 424.825 577C396.325 597.667 336.925 640.4 327.325 646C321.325 651.6 316.825 650.333 315.325 649C313.492 647.167 308.525 642.6 303.325 639C300.925 635 302.325 630.667 303.325 629Z" fill="white"/>
<path d="M1207.5 833.142L1078.5 957.142L1055 938.643C1056.5 934.143 1060.3 923.343 1063.5 916.143C1068.7 899.743 1080.67 888.643 1086 885.143C1114.5 864.476 1173.9 821.742 1183.5 816.142C1189.5 810.542 1194 811.809 1195.5 813.142C1197.33 814.976 1202.3 819.542 1207.5 823.142C1209.9 827.142 1208.5 831.476 1207.5 833.142Z" fill="white"/>
<path d="M870.325 1131L999.325 1007L1022.83 1025.5C1021.33 1030 1017.53 1040.8 1014.33 1048C1009.13 1064.4 997.159 1075.5 991.825 1079C963.325 1099.67 903.925 1142.4 894.325 1148C888.325 1153.6 883.825 1152.33 882.325 1151C880.492 1149.17 875.525 1144.6 870.325 1141C867.925 1137 869.325 1132.67 870.325 1131Z" fill="white"/>
<path d="M1217.5 628.998L1088.5 505L1065 523.499C1066.5 527.999 1070.3 538.799 1073.5 545.999C1078.7 562.399 1090.67 573.498 1096 576.998C1124.5 597.665 1183.9 640.397 1193.5 645.997C1199.5 651.597 1204 650.331 1205.5 648.997C1207.34 647.164 1212.3 642.597 1217.5 638.997C1219.9 634.997 1218.5 630.664 1217.5 628.998Z" fill="white"/>
<path d="M881.325 331.142L1010.33 455.14L1033.83 436.64C1032.33 432.141 1028.53 421.341 1025.33 414.141C1020.13 397.741 1008.16 386.641 1002.83 383.141C974.328 362.475 914.926 319.742 905.326 314.142C899.326 308.542 894.826 309.809 893.326 311.142C891.492 312.976 886.525 317.542 881.325 321.142C878.925 325.142 880.325 329.475 881.325 331.142Z" fill="white"/>
<path d="M304.325 833.142L433.329 957.14L456.83 938.64C455.33 934.141 451.53 923.341 448.33 916.141C443.13 899.741 431.163 888.641 425.829 885.141C397.328 864.475 337.926 821.742 328.326 816.142C322.326 810.542 317.826 811.809 316.326 813.142C314.492 814.976 309.525 819.542 304.325 823.142C301.925 827.142 303.325 831.475 304.325 833.142Z" fill="white"/>
<path d="M638.505 1129L509.501 1005L486 1023.5C487.5 1028 491.3 1038.8 494.5 1046C499.7 1062.4 511.667 1073.5 517.001 1077C545.502 1097.66 604.904 1140.4 614.504 1146C620.504 1151.6 625.004 1150.33 626.504 1149C628.338 1147.16 633.305 1142.6 638.505 1139C640.905 1135 639.505 1130.66 638.505 1129Z" fill="white"/>
<path d="M688.5 881L681 662.5L707 628C709.667 709 715 878 715 906C695 896.8 689 885.5 688.5 881Z" fill="white"/>
<path d="M820.5 881L828 662.5L802 628C799.333 709 794 878 794 906C814 896.8 820 885.5 820.5 881Z" fill="white"/>
<path d="M775 906.5H737L727 606H783L775 906.5Z" fill="white"/>
<path d="M871.5 600.5V559C907.833 536 985.1 487.3 1003.5 476.5C1000.3 493.3 1011.83 507.167 1018 512L871.5 600.5Z" fill="white"/>
<path d="M638 601V559.5C601.791 536.5 524.788 487.8 506.451 477C509.64 493.8 498.146 507.667 492 512.5L638 601Z" fill="white"/>
<path d="M666 866V820C618.333 856.167 516.4 931.2 498 946C511.6 958.8 515.667 974.333 515 980L666 866Z" fill="white"/>
<path d="M844 866V820C891.383 856.167 992.71 931.2 1011 946C997.481 958.8 993.438 974.333 994.101 980L844 866Z" fill="white"/>
<path d="M784 585.5H726L722 443.5H788.5L784 585.5Z" fill="white"/>
<circle cx="472" cy="982" r="25" fill="white"/>
<circle cx="1040" cy="982" r="25" fill="white"/>
<circle cx="1048" cy="480" r="25" fill="white"/>
<circle cx="472" cy="480" r="25" fill="white"/>
<path d="M708.5 591L671 642.5C662.6 636.9 657.5 628.167 656 624.5C657.5 586.833 660.5 509.5 660.5 501.5C675.7 473.5 695.5 453.5 703.5 447L708.5 591Z" fill="white"/>
<path d="M802 591L839.5 642.5C847.9 636.9 853 628.167 854.5 624.5C853 586.833 850 509.5 850 501.5C834.8 473.5 815 453.5 807 447L802 591Z" fill="white"/>
</svg>
