<svg width="1500" height="1500" viewBox="0 0 1500 1500" fill="none" xmlns="http://www.w3.org/2000/svg">
<path d="M410 733H437V720.5H418V692.5H435.5V683.5H421V469H410V733Z" fill="white"/>
<path d="M1121.5 1053.5H1093.5L648 1053L615.5 1052H584.5L558 1048.5L531.5 1044.5C525 1042.83 511.2 1039.6 508 1040C504.8 1040.4 492.667 1037.5 487 1036C481.5 1032.5 469.4 1025.4 465 1025C460.6 1024.6 454.167 1019.83 451.5 1017.5C448.167 1011.17 441.9 1002.3 443.5 1017.5C445.5 1036.5 468.5 1043.5 494.5 1053.5C515.3 1061.5 583.833 1067.5 615.5 1069.5H1121.5V1053.5Z" fill="white"/>
<path d="M1102 1010V762.5H1076V750V717H1043V750H1017.5V717H985.5V700H1121.5V717H1102V753H1121.5V1020H1093.5V1054H1065.5V1022H1037V1054.5L1010.5 1054L1008.5 1022H980V1054.5H953.5V1022H923V1054L897 1054.5V1022H866.5V1054.5L840.5 1054L839 1025H810.5V1054.5H784V1025H753V1054.5H726.5L724.5 1022H697V1054.5H667V1022H639.5V1054.5L613.5 1052V1020H583V1052L557 1048.5V1015.5L531 1013V1044.5L505.5 1040V1008.5L484 1003.5V1036L464.5 1025V994L451.5 985.5V1017.5H443V966C450.5 979 462.5 985 484 994C501.2 1001.2 567.167 1008.33 598 1011L684.5 1013H747C753.8 1013 757.5 1006.67 758.5 1003.5V773.5C756.1 763.5 746.5 762 742 762.5L753 753H766H784V717.5H766V700H810.5V762.5H787.5C780.7 762.5 776 769.833 774.5 773.5V1003.5C775.3 1008.7 783.5 1012 787.5 1013L1102 1010Z" fill="white"/>
<path d="M987 700H810.5L908.5 709L958 718.5V750H929V718.5H899.5V753.5H869.5V718.5H841V753.5H808V762.5H1081V750H1021H987V700Z" fill="white"/>
<path d="M809.5 718.5V700H881.5L961.5 718.5H809.5Z" fill="white"/>
<path d="M433 663L443 968L453 981.5C450.333 906.5 445 751.6 445 732C451 736.5 456 737 475 744.5C490.2 756.5 567 761.5 603.5 762.5H743.5L753 753.5V718H767V700L724.5 698V716V751H694.5V716H661.5V751H635.5V716H608V748H578.5V713L553 712V748C549 748 532.667 745.667 525 744.5V709.5L498 704C498.5 711.667 499.2 731.7 498 740.5C490.4 740.5 479.5 736.167 475 734V699.5L456 693V729.5C452.4 728.7 445.167 722.167 442 719V669L433 663Z" fill="white"/>
<path d="M566 696.5L726 698L736 717H609.5C607 716.667 589.9 715.2 541.5 712C482.7 706.8 446.667 690.5 436 683C435.167 681.167 433.5 674.8 433.5 664C436.5 667.5 456.5 677.5 483 685.5C504.2 691.9 547.167 695.5 566 696.5Z" fill="white"/>
<path d="M431.5 646.5L433 666L449.5 675.5L448 642L461.5 630.5L462.5 665L476.5 658L475.5 625.5L492.5 616L494.5 649.5L513 645.5L511.5 612L532.5 605L534 638L554 633.5L552.5 601L579 595.5L579.5 628L614.5 622.5L613.5 590.5L626.5 589.5L627 620L650 617.5V585.5L676.5 583.5L677.5 613.5L701 612V580.5L728.5 579V610L753.5 609.5L754.5 577.5L781.5 576.5V609.5H805.5V576.5L834 576V608.5L857 608L858 576L885 574.5L885.5 605.5L908.5 603V573L933 570V603L956 597.5L955 565.5L976.5 560L978 593L994 587L993 556L1010.5 549V580.5L1020 573.5L1021.5 545L1029 540V568L1021.5 574.5C1019.5 577.833 1016.7 584 1021.5 582C1026.3 580 1031.83 571.833 1034 568V529.5C1034.17 524.166 1032.9 515.8 1026.5 525C1018.5 536.5 950 555 941 555C924.2 558.6 819.333 561.833 769 563C675.8 563.8 583.5 578.666 549 586C526 592.166 475.4 607.4 457 619C438.6 630.6 432.333 642.166 431.5 646.5Z" fill="white"/>
<path d="M541 634C514.6 635.2 468.333 660.833 448.5 673.5C449.833 676.167 453.3 680.6 456.5 677C460.5 672.5 484 661.5 516.5 651C549 640.5 638 627.5 646.5 627.5C653.3 627.5 657 632.5 658 635L660 700H672C672.167 682 672.4 644.2 672 637C671.5 628 670.5 632.5 677.5 626C707 616.5 805 619.5 859 618C902.2 616.8 950.333 607.5 969 603L997 598L995.5 701H1003.5L1006 596.5L1019 583L1022.5 582L1026 581L1022.5 701H1032L1034 568L1021 581L1030 566.5C1027.83 567.667 1022.2 570.8 1017 574C980.6 597.2 929.167 603 908 603C883 604.833 819.9 608.6 767.5 609C715.1 609.4 666 614.167 648 616.5L541 634Z" fill="white"/>
<path d="M433.5 469H421L415.5 477L509.5 480.5C533.667 480.333 583.5 480.1 589.5 480.5C595.5 480.9 600 486.667 601.5 489.5L602.5 580.5H614C613.833 554.167 613.6 499.7 614 492.5C614.4 485.3 619.167 482.833 621.5 482.5L693 484C731.833 485.5 810.7 488.5 815.5 488.5C821.5 488.5 895.5 497 906.5 498C915.3 498.8 920.833 505.333 922.5 508.5V561L932.5 562C932.333 546.667 932.3 515.2 933.5 512C935 508 937.5 506.5 944.5 505.5C965.3 505.5 1000.5 522.5 1015.5 531L1033.5 538L1037 503L1027 497V522L1019 524.5L1021.5 494L1010 488.5L1008.5 517.5L991.5 510.5L995 482L978.5 476.5L977.5 505.5L957.5 500V470.5L940.5 463.5V495L917 493L918.5 463.5L897.5 460.5V488.5L873 486.5V457.5L852.5 455L853.5 484H829L828 453L807.5 451V480H782L782.5 450L762.5 449V477.5H736V447H713.5L714.5 475H690L689 447L667 445.5V472H642.5V443.5L618.5 445.5V472H595.5V443.5H571L572.5 472H548.5V443H525V472H501V440H479V469.5H455V440H434L433.5 469Z" fill="white"/>
<path d="M1033 488.5C1036.6 493.7 1037.17 500.667 1037 503.5C965 462.501 892.5 460 845.5 455.5C817.5 450.3 718.833 447.333 673 446.5L411.5 440.5V425.5L579.5 429.5C642 431.333 776.6 435.6 815 438C860.5 437.5 964 457.5 979 460C994 462.5 1028.5 482 1033 488.5Z" fill="white"/>
</svg>
