<svg width="1424" height="940" viewBox="0 0 1424 940" fill="none" xmlns="http://www.w3.org/2000/svg">
<path d="M104.015 739.137C68.4146 776.337 62.1812 752.304 63.5145 735.637C53.0142 516.138 205.015 462.138 353.516 420.638C603.016 354.638 934.517 247.639 1060.02 203.139C1168.82 168.339 1267.35 103.64 1303.02 75.6398C1314.52 65.4732 1335.62 52.6399 1328.02 82.6398C1300.52 171.139 1303.52 187.139 1145.52 287.639C909.016 395.139 349.015 507.138 296.015 519.138C243.015 531.138 205.015 583.638 174.015 628.138C160.515 671.137 147.015 700.637 104.015 739.137Z" fill="white"/>
<path d="M320.841 564.052C274.041 565.65 301.341 549.078 320.841 540.592C734.339 471.21 1015.34 385.853 1203.34 306.986C1234.34 288.518 1239.84 297.003 1225.84 321.462C1176.34 426.784 1130.84 448.747 1000.34 501.159C791.34 561.057 391.341 564.052 320.841 564.052Z" fill="white"/>
<path d="M211.186 660.927C213.186 655.618 220.353 656.819 223.686 658.083C266.185 669.933 395.685 699.797 520.185 714.018C644.684 728.238 745.184 722.076 760.683 719.232C776.183 716.388 776.683 722.55 773.683 729.66C753.184 756.205 753.184 758.576 658.684 791.757C564.184 807.4 496.685 785.595 395.685 758.576C294.686 731.556 213.686 676.57 212.186 675.622C210.686 674.674 208.686 667.564 211.186 660.927Z" fill="white"/>
<path d="M234.998 855.001C196.998 830.201 160.499 781.5 143.999 759C134 759 108.333 783.334 104 789.5C107.333 805.167 120.3 840.501 145.499 856.501C176.999 876.502 209.998 875.502 223.498 875.502C236.998 875.502 238.998 864.002 234.998 855.001Z" fill="white"/>
<path d="M191.613 713.003C178.413 713.403 176.447 726.17 177.113 732.503C185.613 752.003 226.614 792.501 269.115 829.501C320.616 868.5 346.616 868.5 397.117 872C442.117 872 483.118 849.5 487.618 843.001C492.118 836.501 489.118 830.001 480.618 827.001C440.117 820.001 395.116 805.001 338.616 786.502C280.615 768.502 208.114 712.503 191.613 713.003Z" fill="white"/>
<path d="M237.722 605.759C239.322 599.759 250.388 599.259 255.722 599.759C866.221 593.759 932.22 557.259 997.22 543.759C1036.02 531.358 1026.05 552.592 1016.22 564.759C974.22 617.259 890.72 675.987 730.721 678.26C449.221 682.26 264.222 627.76 250.722 624.76C237.222 621.76 235.722 613.26 237.722 605.759Z" fill="white"/>
</svg>
