<svg width="1500" height="1500" viewBox="0 0 1500 1500" fill="none" xmlns="http://www.w3.org/2000/svg">
<path d="M616 1122L760.5 873.5H381.5C422.5 999 510 1079.5 616 1122Z" fill="white"/>
<path d="M894.5 389L750 637.5H1129C1088 512 1000.5 431.5 894.5 389Z" fill="white"/>
<path d="M1138.46 680.141L851 679.25L1040.5 1007.47C1128.69 909.217 1154.65 793.189 1138.46 680.141Z" fill="white"/>
<path d="M373.25 829.333L660.708 830.224L471.208 502C383.021 600.257 357.056 716.284 373.25 829.333Z" fill="white"/>
<path d="M509.25 451.083L652.208 700.474L841.708 372.25C712.521 345.007 599.056 380.534 509.25 451.083Z" fill="white"/>
<path d="M1004.46 1059.39L861.5 810L672 1138.22C801.186 1165.47 914.651 1129.94 1004.46 1059.39Z" fill="white"/>
</svg>
