<svg width="1511" height="940" viewBox="0 0 1511 940" fill="none" xmlns="http://www.w3.org/2000/svg">
<g clip-path="url(#clip0_445_2)">
<path d="M1406.61 726.14C1442.21 763.34 1448.45 739.307 1447.11 722.64C1457.61 503.14 1305.61 449.14 1157.11 407.64C907.612 341.64 576.112 234.64 450.612 190.14C341.812 155.34 243.279 90.6398 207.613 62.6399C196.113 52.4732 175.013 39.6399 182.613 69.6399C210.113 158.14 207.113 174.14 365.113 274.64C601.613 382.14 1161.61 494.14 1214.61 506.14C1267.61 518.14 1305.61 570.64 1336.61 615.14C1350.11 658.14 1363.61 687.64 1406.61 726.14Z" fill="white"/>
<path d="M1192.11 555.64C1238.91 557.24 1211.61 540.64 1192.11 532.14C778.613 462.64 497.612 377.14 309.613 298.14C278.613 279.64 273.113 288.14 287.113 312.64C336.613 418.14 382.113 440.14 512.613 492.64C721.613 552.64 1121.61 555.64 1192.11 555.64Z" fill="white"/>
<path d="M1277.11 846.141C1315.11 821.341 1351.61 772.641 1368.11 750.141C1378.11 750.141 1403.78 774.474 1408.11 780.641C1404.78 796.307 1391.81 831.641 1366.61 847.641C1335.11 867.641 1302.11 866.641 1288.61 866.641C1275.11 866.641 1273.11 855.141 1277.11 846.141Z" fill="white"/>
<path d="M1301.61 648.139C1299.61 642.539 1292.45 643.805 1289.11 645.139C1246.61 657.638 1117.11 689.139 992.612 704.139C868.112 719.139 767.612 712.639 752.112 709.639C736.612 706.639 736.112 713.139 739.112 720.639C759.612 748.639 759.612 751.139 854.112 786.139C948.612 802.639 1016.11 779.639 1117.11 751.139C1218.11 722.639 1299.11 664.639 1300.61 663.639C1302.11 662.639 1304.11 655.139 1301.61 648.139Z" fill="white"/>
<path d="M1320.61 704.64C1333.81 705.04 1335.78 717.807 1335.11 724.14C1326.61 743.64 1285.61 784.14 1243.11 821.14C1191.61 860.14 1165.61 860.14 1115.11 863.64C1070.11 863.64 1029.11 841.14 1024.61 834.64C1020.11 828.14 1023.11 821.64 1031.61 818.64C1072.11 811.64 1117.11 796.64 1173.61 778.14C1231.61 760.14 1304.11 704.14 1320.61 704.64Z" fill="white"/>
<path d="M1274.11 597.139C1272.51 591.139 1261.45 590.639 1256.11 591.139C645.612 585.139 579.612 548.64 514.612 535.139C475.812 522.739 485.779 543.973 495.612 556.139C537.612 608.639 621.112 667.366 781.112 669.639C1062.61 673.639 1247.61 619.139 1261.11 616.139C1274.61 613.139 1276.11 604.639 1274.11 597.139Z" fill="white"/>
</g>
<defs>
<clipPath id="clip0_445_2">
<rect width="1511" height="940" fill="white"/>
</clipPath>
</defs>
</svg>
