<svg width="3000" height="940" viewBox="0 0 3000 940" fill="none" xmlns="http://www.w3.org/2000/svg">
<path d="M1406.61 726.14C1442.21 763.34 1448.45 739.307 1447.11 722.64C1457.61 503.14 1305.61 449.14 1157.11 407.64C907.612 341.64 576.112 234.64 450.612 190.14C341.812 155.34 243.279 90.6398 207.613 62.6399C196.113 52.4732 175.013 39.6399 182.613 69.6399C210.113 158.14 207.113 174.14 365.113 274.64C601.613 382.14 1161.61 494.14 1214.61 506.14C1267.61 518.14 1305.61 570.64 1336.61 615.14C1350.11 658.14 1363.61 687.64 1406.61 726.14Z" fill="white"/>
<path d="M1592.63 730.277C1557.03 767.477 1550.79 743.443 1552.13 726.777C1541.63 507.278 1693.63 453.278 1842.13 411.778C2091.63 345.778 2423.13 238.779 2548.63 194.279C2657.43 159.479 2755.96 94.7793 2791.63 66.7795C2803.13 56.6128 2824.23 43.7796 2816.63 73.7794C2789.13 162.279 2792.13 178.279 2634.13 278.779C2397.63 386.278 1837.63 498.278 1784.63 510.278C1731.63 522.278 1693.63 574.777 1662.63 619.277C1649.13 662.277 1635.63 691.777 1592.63 730.277Z" fill="white"/>
<path d="M1192.11 555.64C1238.91 557.24 1211.61 540.64 1192.11 532.14C778.613 462.64 497.612 377.14 309.613 298.14C278.613 279.64 273.113 288.14 287.113 312.64C336.613 418.14 382.113 440.14 512.613 492.64C721.613 552.64 1121.61 555.64 1192.11 555.64Z" fill="white"/>
<path d="M1277.11 846.14C1315.11 821.34 1351.61 772.64 1368.11 750.14C1378.11 750.14 1403.78 774.473 1408.11 780.64C1404.78 796.306 1391.81 831.64 1366.61 847.64C1335.11 867.64 1302.11 866.64 1288.61 866.64C1275.11 866.64 1273.11 855.14 1277.11 846.14Z" fill="white"/>
<path d="M1809.45 555.192C1762.65 556.789 1789.95 540.217 1809.45 531.732C2222.95 462.349 2503.95 376.993 2691.95 298.126C2722.95 279.657 2728.45 288.143 2714.45 312.602C2664.95 417.924 2619.45 439.887 2488.95 492.298C2279.95 552.197 1879.95 555.192 1809.45 555.192Z" fill="white"/>
<path d="M1301.61 648.14C1299.61 642.54 1292.45 643.806 1289.11 645.14C1246.61 657.639 1117.11 689.14 992.612 704.14C868.112 719.14 767.612 712.64 752.112 709.64C736.612 706.64 736.112 713.14 739.112 720.64C759.612 748.64 759.612 751.14 854.112 786.14C948.612 802.64 1016.11 779.64 1117.11 751.14C1218.11 722.64 1299.11 664.64 1300.61 663.64C1302.11 662.64 1304.11 655.14 1301.61 648.14Z" fill="white"/>
<path d="M1699.8 652.067C1701.8 646.758 1708.96 647.959 1712.3 649.223C1754.8 661.073 1884.3 690.937 2008.8 705.157C2133.3 719.378 2233.8 713.216 2249.3 710.371C2264.8 707.527 2265.3 713.69 2262.3 720.8C2241.8 747.345 2241.8 749.715 2147.3 782.897C2052.8 798.539 1985.3 776.734 1884.3 749.715C1783.3 722.696 1702.3 667.71 1700.8 666.762C1699.3 665.814 1697.3 658.703 1699.8 652.067Z" fill="white"/>
<path d="M1723.61 846.141C1685.61 821.341 1649.11 772.64 1632.61 750.14C1622.61 750.14 1596.95 774.473 1592.61 780.64C1595.95 796.307 1608.91 831.641 1634.11 847.641C1665.61 867.641 1698.61 866.641 1712.11 866.641C1725.61 866.641 1727.61 855.141 1723.61 846.141Z" fill="white"/>
<path d="M1320.61 704.64C1333.81 705.04 1335.78 717.807 1335.11 724.14C1326.61 743.64 1285.61 784.14 1243.11 821.14C1191.61 860.14 1165.61 860.14 1115.11 863.64C1070.11 863.64 1029.11 841.14 1024.61 834.64C1020.11 828.14 1023.11 821.64 1031.61 818.64C1072.11 811.64 1117.11 796.64 1173.61 778.14C1231.61 760.14 1304.11 704.14 1320.61 704.64Z" fill="white"/>
<path d="M1680.23 704.143C1667.03 704.543 1665.06 717.309 1665.73 723.643C1674.23 743.142 1715.23 783.641 1757.73 820.64C1809.23 859.64 1835.23 859.64 1885.73 863.14C1930.73 863.14 1971.73 840.64 1976.23 834.14C1980.73 827.64 1977.73 821.14 1969.23 818.14C1928.73 811.141 1883.73 796.141 1827.23 777.642C1769.23 759.642 1696.73 703.643 1680.23 704.143Z" fill="white"/>
<path d="M1274.11 597.139C1272.51 591.139 1261.45 590.639 1256.11 591.139C645.612 585.139 579.612 548.64 514.612 535.139C475.812 522.739 485.779 543.973 495.612 556.139C537.612 608.639 621.112 667.366 781.112 669.639C1062.61 673.639 1247.61 619.139 1261.11 616.139C1274.61 613.139 1276.11 604.639 1274.11 597.139Z" fill="white"/>
<path d="M1726.33 596.899C1727.93 590.899 1739 590.399 1744.33 590.899C2354.83 584.899 2420.83 548.399 2485.83 534.898C2524.63 522.498 2514.67 543.732 2504.83 555.898C2462.83 608.399 2379.33 667.126 2219.33 669.4C1937.83 673.4 1752.83 618.899 1739.33 615.899C1725.83 612.899 1724.33 604.399 1726.33 596.899Z" fill="white"/>
</svg>
