<svg width="3000" height="1500" viewBox="0 0 3000 1500" fill="none" xmlns="http://www.w3.org/2000/svg">
<path d="M1406 934C1441.6 971.2 1447.83 947.167 1446.5 930.5C1457 711 1305 657 1156.5 615.5C907 549.5 575.5 442.5 450 398C341.2 363.2 242.667 298.5 207 270.5C195.5 260.334 174.4 247.5 182 277.5C209.5 366 206.5 382 364.5 482.5C601 590 1161 702 1214 714C1267 726 1305 778.5 1336 823C1349.5 866 1363 895.5 1406 934Z" fill="white"/>
<path d="M1592.01 938.137C1556.41 975.337 1550.18 951.304 1551.51 934.637C1541.01 715.138 1693.02 661.138 1841.52 619.638C2091.02 553.638 2422.52 446.639 2548.02 402.139C2656.82 367.339 2755.35 302.64 2791.02 274.64C2802.52 264.473 2823.62 251.64 2816.02 281.64C2788.52 370.139 2791.52 386.139 2633.52 486.639C2397.02 594.139 1837.02 706.138 1784.02 718.138C1731.01 730.138 1693.01 782.638 1662.01 827.138C1648.51 870.137 1635.01 899.637 1592.01 938.137Z" fill="white"/>
<path d="M1191.5 763.5C1238.3 765.1 1211 748.5 1191.5 740C778.001 670.501 497 585 309 506C278 487.5 272.5 496 286.5 520.5C336 626 381.5 648 512 700.5C721 760.5 1121 763.5 1191.5 763.5Z" fill="white"/>
<path d="M1276.5 1054C1314.5 1029.2 1351 980.5 1367.5 958C1377.5 958 1403.17 982.333 1407.5 988.5C1404.17 1004.17 1391.2 1039.5 1366 1055.5C1334.5 1075.5 1301.5 1074.5 1288 1074.5C1274.5 1074.5 1272.5 1063 1276.5 1054Z" fill="white"/>
<path d="M1808.84 763.052C1762.04 764.65 1789.34 748.078 1808.84 739.592C2222.34 670.21 2503.34 584.853 2691.34 505.986C2722.34 487.518 2727.84 496.003 2713.84 520.462C2664.34 625.784 2618.84 647.747 2488.34 700.159C2279.34 760.057 1879.34 763.052 1808.84 763.052Z" fill="white"/>
<path d="M1301 856C1299 850.4 1291.83 851.667 1288.5 853C1246 865.5 1116.5 897 992 912C867.5 927 767 920.5 751.5 917.5C736 914.5 735.5 921 738.5 928.5C759 956.5 759 959 853.5 994C948 1010.5 1015.5 987.5 1116.5 959C1217.5 930.5 1298.5 872.5 1300 871.5C1301.5 870.5 1303.5 863 1301 856Z" fill="white"/>
<path d="M1699.19 859.927C1701.19 854.618 1708.35 855.819 1711.69 857.083C1754.19 868.933 1883.69 898.797 2008.18 913.018C2132.68 927.238 2233.18 921.076 2248.68 918.232C2264.18 915.388 2264.68 921.55 2261.68 928.66C2241.18 955.205 2241.18 957.576 2146.68 990.757C2052.18 1006.4 1984.68 984.595 1883.69 957.576C1782.69 930.556 1701.69 875.57 1700.19 874.622C1698.69 873.674 1696.69 866.564 1699.19 859.927Z" fill="white"/>
<path d="M1723 1054C1685 1029.2 1648.5 980.5 1632 958C1622 958 1596.33 982.334 1592 988.5C1595.33 1004.17 1608.3 1039.5 1633.5 1055.5C1665 1075.5 1698 1074.5 1711.5 1074.5C1725 1074.5 1727 1063 1723 1054Z" fill="white"/>
<path d="M1320 912.5C1333.2 912.9 1335.17 925.667 1334.5 932C1326 951.5 1285 992 1242.5 1029C1191 1068 1165 1068 1114.5 1071.5C1069.5 1071.5 1028.5 1049 1024 1042.5C1019.5 1036 1022.5 1029.5 1031 1026.5C1071.5 1019.5 1116.5 1004.5 1173 986C1231 968 1303.5 912 1320 912.5Z" fill="white"/>
<path d="M1679.61 912.003C1666.41 912.403 1664.45 925.17 1665.11 931.503C1673.61 951.003 1714.61 991.501 1757.12 1028.5C1808.62 1067.5 1834.62 1067.5 1885.12 1071C1930.12 1071 1971.12 1048.5 1975.62 1042C1980.12 1035.5 1977.12 1029 1968.62 1026C1928.12 1019 1883.12 1004 1826.62 985.502C1768.61 967.502 1696.11 911.503 1679.61 912.003Z" fill="white"/>
<path d="M1273.5 805C1271.9 799 1260.83 798.5 1255.5 799C644.999 793 579 756.5 514 743C475.2 730.6 485.166 751.833 495 764C537 816.5 620.5 875.226 780.5 877.5C1062 881.5 1247 827 1260.5 824C1274 821 1275.5 812.5 1273.5 805Z" fill="white"/>
<path d="M1725.72 804.759C1727.32 798.759 1738.39 798.259 1743.72 798.759C2354.22 792.759 2420.22 756.259 2485.22 742.759C2524.02 730.358 2514.05 751.592 2504.22 763.759C2462.22 816.259 2378.72 874.987 2218.72 877.26C1937.22 881.26 1752.22 826.76 1738.72 823.76C1725.22 820.76 1723.72 812.26 1725.72 804.759Z" fill="white"/>
</svg>
